<svg viewBox="0 0 600 400" xmlns="http://www.w3.org/2000/svg">
<g transform="translate(72, 364)">
<g>
<g>
<rect fill="#DD3355" height="10" width="10" x="-5" y="-124.97547149658023"/>
<rect fill="#DD3355" height="10" width="10" x="-0.20000000000000018" y="-124.97547149633014"/>
<rect fill="#DD3355" height="10" width="10" x="4.6" y="-124.9754714959857"/>
<rect fill="#DD3355" height="10" width="10" x="9.400000000000002" y="-124.9754714959857"/>
<rect fill="#DD3355" height="10" width="10" x="14.2" y="-124.97547149633014"/>
<rect fill="#DD3355" height="10" width="10" x="19" y="-124.97547149658023"/>
<rect fill="#DD3355" height="10" width="10" x="23.800000000000004" y="-124.97547149635847"/>
<rect fill="#DD3355" height="10" width="10" x="28.60000000000001" y="-124.9754714959857"/>
<rect fill="#DD3355" height="10" width="10" x="33.4" y="-124.97547149600457"/>
<rect fill="#DD3355" height="10" width="10" x="38.2" y="-124.97547149635847"/>
<rect fill="#DD3355" height="10" width="10" x="43" y="-124.97547149658023"/>
<rect fill="#DD3355" height="10" width="10" x="47.8" y="-124.97547149635847"/>
<rect fill="#DD3355" height="10" width="10" x="52.60000000000001" y="-124.97547149683975"/>
<rect fill="#DD3355" height="10" width="10" x="57.4" y="-124.97547149600457"/>
<rect fill="#DD3355" height="10" width="10" x="62.20000000000002" y="-124.97547149635847"/>
<rect fill="#DD3355" height="10" width="10" x="67" y="-124.97547149658023"/>
<rect fill="#DD3355" height="10" width="10" x="71.8" y="-124.97547149633486"/>
<rect fill="#DD3355" height="10" width="10" x="76.60000000000001" y="-124.97547149679255"/>
<rect fill="#DD3355" height="10" width="10" x="81.4" y="-124.97547149683975"/>
<rect fill="#DD3355" height="10" width="10" x="86.20000000000002" y="-124.97547149635847"/>
<rect fill="#DD3355" height="10" width="10" x="91" y="-124.97547149658023"/>
<rect fill="#DD3355" height="10" width="10" x="95.8" y="-124.97547149633486"/>
<rect fill="#DD3355" height="10" width="10" x="100.6" y="-124.97547149679255"/>
<rect fill="#DD3355" height="10" width="10" x="105.40000000000002" y="-124.97547149599514"/>
<rect fill="#DD3355" height="10" width="10" x="110.20000000000002" y="-124.97547149633486"/>
<rect fill="#DD3355" height="10" width="10" x="115" y="-124.97547149658023"/>
<rect fill="#DD3355" height="10" width="10" x="119.8" y="-124.97547149633486"/>
<rect fill="#DD3355" height="10" width="10" x="124.6" y="-124.9754714959857"/>
<rect fill="#DD3355" height="10" width="10" x="129.40000000000003" y="-124.97547149683975"/>
<rect fill="#DD3355" height="10" width="10" x="134.20000000000002" y="-124.97547149633486"/>
<rect fill="#DD3355" height="10" width="10" x="139" y="-124.97547149658023"/>
<rect fill="#DD3355" height="10" width="10" x="143.8" y="-124.97547149633486"/>
<rect fill="#DD3355" height="10" width="10" x="148.6" y="-124.9754714959857"/>
<rect fill="#DD3355" height="10" width="10" x="153.40000000000003" y="-124.97547149683975"/>
<rect fill="#DD3355" height="10" width="10" x="158.20000000000002" y="-124.97547149633486"/>
<rect fill="#DD3355" height="10" width="10" x="163" y="-124.97547149658023"/>
<rect fill="#DD3355" height="10" width="10" x="167.8" y="-124.97547149633486"/>
<rect fill="#DD3355" height="10" width="10" x="172.6" y="-124.9754714959857"/>
<rect fill="#DD3355" height="10" width="10" x="177.40000000000003" y="-124.97547149679255"/>
<rect fill="#DD3355" height="10" width="10" x="182.20000000000002" y="-124.97547149633486"/>
<rect fill="#DD3355" height="10" width="10" x="187" y="-124.97547149658023"/>
<rect fill="#DD3355" height="10" width="10" x="191.8" y="-124.9754714963443"/>
<rect fill="#DD3355" height="10" width="10" x="196.6" y="-124.97547149599514"/>
<rect fill="#DD3355" height="10" width="10" x="201.4" y="-124.97547149679255"/>
<rect fill="#DD3355" height="10" width="10" x="206.2" y="-124.97547149633486"/>
<rect fill="#DD3355" height="10" width="10" x="211" y="-124.97547149658023"/>
<rect fill="#DD3355" height="10" width="10" x="215.80000000000004" y="-124.9754714963443"/>
<rect fill="#DD3355" height="10" width="10" x="220.6" y="-124.97547149599514"/>
<rect fill="#DD3355" height="10" width="10" x="225.40000000000003" y="-124.97547149600457"/>
<rect fill="#DD3355" height="10" width="10" x="230.2" y="-124.97547149633486"/>
<rect fill="#DD3355" height="10" width="10" x="235" y="-124.97547149658023"/>
<rect fill="#DD3355" height="10" width="10" x="239.80000000000004" y="-124.97547149633958"/>
<rect fill="#DD3355" height="10" width="10" x="244.6" y="-124.97547149600457"/>
<rect fill="#DD3355" height="10" width="10" x="249.40000000000003" y="-124.97547149600457"/>
<rect fill="#DD3355" height="10" width="10" x="254.2" y="-124.97547149635847"/>
<rect fill="#DD3355" height="10" width="10" x="259" y="-124.97547149658023"/>
<rect fill="#DD3355" height="10" width="10" x="263.80000000000007" y="-124.97547149633486"/>
<rect fill="#DD3355" height="10" width="10" x="268.6" y="-124.97547149677368"/>
<rect fill="#DD3355" height="10" width="10" x="273.40000000000003" y="-124.97547149616028"/>
<rect fill="#DD3355" height="10" width="10" x="278.2" y="-124.97547149633486"/>
<rect fill="#DD3355" height="10" width="10" x="283" y="-124.97547149658023"/>
<rect fill="#DD3355" height="10" width="10" x="287.80000000000007" y="-124.97547149633958"/>
<rect fill="#DD3355" height="10" width="10" x="292.6" y="-124.97547149600457"/>
<rect fill="#DD3355" height="10" width="10" x="297.40000000000003" y="-124.97547149600457"/>
<rect fill="#DD3355" height="10" width="10" x="302.2" y="-124.97547149633958"/>
<rect fill="#DD3355" height="10" width="10" x="307" y="-124.97547149658023"/>
<rect fill="#DD3355" height="10" width="10" x="311.80000000000007" y="-124.97547149633958"/>
<rect fill="#DD3355" height="10" width="10" x="316.6" y="-124.97547149677368"/>
<rect fill="#DD3355" height="10" width="10" x="321.40000000000003" y="-124.97547149615556"/>
<rect fill="#DD3355" height="10" width="10" x="326.2" y="-124.97547149633486"/>
<rect fill="#DD3355" height="10" width="10" x="331" y="-124.97547149658023"/>
<rect fill="#DD3355" height="10" width="10" x="335.80000000000007" y="-124.97547149633958"/>
<rect fill="#DD3355" height="10" width="10" x="340.6" y="-124.97547149600457"/>
<rect fill="#DD3355" height="10" width="10" x="345.40000000000003" y="-124.97547149600457"/>
<rect fill="#DD3355" height="10" width="10" x="350.2" y="-124.97547149633958"/>
<rect fill="#DD3355" height="10" width="10" x="355" y="-124.97547149658023"/>
<rect fill="#DD3355" height="10" width="10" x="359.80000000000007" y="-124.97547149633486"/>
<rect fill="#DD3355" height="10" width="10" x="364.6" y="-124.97547149678311"/>
<rect fill="#DD3355" height="10" width="10" x="369.40000000000003" y="-124.97547149615556"/>
<rect fill="#DD3355" height="10" width="10" x="374.2" y="-124.97547149633958"/>
<rect fill="#DD3355" height="10" width="10" x="379" y="-124.97547149658023"/>
<rect fill="#DD3355" height="10" width="10" x="383.8" y="-124.97547149633014"/>
<rect fill="#DD3355" height="10" width="10" x="388.6" y="-124.975471496651"/>
<rect fill="#DD3355" height="10" width="10" x="393.40000000000003" y="-124.97547149600457"/>
<rect fill="#DD3355" height="10" width="10" x="398.2" y="-124.97547149633958"/>
<rect fill="#DD3355" height="10" width="10" x="403" y="-124.97547149658023"/>
<rect fill="#DD3355" height="10" width="10" x="407.8" y="-124.97547149633486"/>
<rect fill="#DD3355" height="10" width="10" x="412.6000000000001" y="-124.97547149678311"/>
<rect fill="#DD3355" height="10" width="10" x="417.4" y="-124.97547149615556"/>
<rect fill="#DD3355" height="10" width="10" x="422.2" y="-124.97547149633486"/>
<rect fill="#DD3355" height="10" width="10" x="427" y="-124.97547149658023"/>
<rect fill="#DD3355" height="10" width="10" x="431.8" y="-124.97547149633014"/>
<rect fill="#DD3355" height="10" width="10" x="436.6000000000001" y="-124.975471496651"/>
<rect fill="#DD3355" height="10" width="10" x="441.4" y="-124.97547149600457"/>
<rect fill="#DD3355" height="10" width="10" x="446.2" y="-124.97547149633958"/>
<rect fill="#DD3355" height="10" width="10" x="451" y="-124.97547149658023"/>
<rect fill="#DD3355" height="10" width="10" x="455.80000000000007" y="-124.97547149652361"/>
<rect fill="#DD3355" height="10" width="10" x="460.6000000000001" y="-124.97547149679255"/>
<rect fill="#DD3355" height="10" width="10" x="465.4" y="-124.97547149614141"/>
<rect fill="#DD3355" height="10" width="10" x="470.2" y="-124.97547149633486"/>
</g>
</g>
<g>
<g>
<line stroke="black" stroke-width="1" x1="0" x2="0" y1="0" y2="10"/>
<line stroke="black" stroke-width="1" x1="96" x2="96" y1="0" y2="10"/>
<line stroke="black" stroke-width="1" x1="192" x2="192" y1="0" y2="10"/>
<line stroke="black" stroke-width="1" x1="288" x2="288" y1="0" y2="10"/>
<line stroke="black" stroke-width="1" x1="384" x2="384" y1="0" y2="10"/>
<line stroke="black" stroke-width="1" x1="480" x2="480" y1="0" y2="10"/>
</g>
<line stroke="black" stroke-width="1" x1="0" x2="480" y1="0" y2="0"/>
<g>
<text font-size="12" text-anchor="middle" x="0" y="20">
0
</text>
<text font-size="12" text-anchor="middle" x="96" y="20">
2
</text>
<text font-size="12" text-anchor="middle" x="192" y="20">
4
</text>
<text font-size="12" text-anchor="middle" x="288" y="20">
6
</text>
<text font-size="12" text-anchor="middle" x="384" y="20">
8
</text>
<text font-size="12" text-anchor="middle" x="480" y="20">
10
</text>
</g>
<text font-size="12" text-anchor="middle" x="240" y="30">
Frequency
</text>
</g>
<g>
<g>
<line stroke="black" stroke-width="1" x1="0" x2="-10" y1="0" y2="0"/>
<line stroke="black" stroke-width="1" x1="0" x2="-10" y1="-85" y2="-85"/>
<line stroke="black" stroke-width="1" x1="0" x2="-10" y1="-170" y2="-170"/>
<line stroke="black" stroke-width="1" x1="0" x2="-10" y1="-255" y2="-255"/>
<line stroke="black" stroke-width="1" x1="0" x2="-10" y1="-340" y2="-340"/>
</g>
<line stroke="black" stroke-width="1" x1="0" x2="0" y1="0" y2="-340"/>
<g>
<text dominant-baseline="middle" font-size="12" text-anchor="end" x="-15" y="0">
0.33
</text>
<text dominant-baseline="middle" font-size="12" text-anchor="end" x="-15" y="-85">
0.331
</text>
<text dominant-baseline="middle" font-size="12" text-anchor="end" x="-15" y="-170">
0.332
</text>
<text dominant-baseline="middle" font-size="12" text-anchor="end" x="-15" y="-255">
0.333
</text>
<text dominant-baseline="middle" font-size="12" text-anchor="end" x="-15" y="-340">
0.334
</text>
</g>
<text font-size="12" text-anchor="middle" transform="rotate(-90 -60 -170)" x="-60" y="-182">
Power Spectrum
</text>
</g>
</g>
</svg>